<svg xmlns="http://www.w3.org/2000/svg" xmlns:xlink="http://www.w3.org/1999/xlink" xmlns:krita="http://krita.org/namespaces/svg/krita" xmlns:sodipodi="http://sodipodi.sourceforge.net/DTD/sodipodi-0.dtd" width="16" height="16" viewBox="0 0 16 16"><defs/><path id="shape0" transform="matrix(.108151 0 0 .108151.2772.000292)" fill="#d9d9d9" fill-rule="evenodd" stroke="#202020" stroke-width=".48" stroke-linecap="square" stroke-linejoin="bevel" d="M111.436 13.3398C86.0758 15.4178 72.6372 89.0189 60.9098 98.323 66.3165 100.131 95.6433 99.0658 97.6193 73.9981 99.5953 48.9303 106.337 28.1463 111.436 13.3398ZM113.971.000289C124.829-.06993 139.565 12.6594 139.46 40.2996 139.356 67.9397 134.842 84.8271 135.762 125.863 133.899 126.411 123.441 130.364 121.031 129.816 117.816 101.692 115.834 83.1425 114.459 83.0434 110.732 86.5712 110.64 119.944 105.432 128.152 95.0087 144.579 80.6484 141.468 50.2997 141.844 19.9509 142.219-.009332 142.277.000003 139.105.027755 129.678 6.60699 98.7322 35.1692 98.1243 36.6917 98.0919 37.4855 98.1546 42.7828 98.1431 57.4852 97.9463 70.027.28449 113.971.000289Z" sodipodi:nodetypes="cczcczcccszsscs"/></svg>